<svg xmlns="http://www.w3.org/2000/svg" viewBox="0 0 24 24" width="512" height="512">
  <defs>
    <linearGradient id="keyGradient" x1="0%" y1="0%" x2="100%" y2="100%">
      <stop offset="0%" stop-color="#8a2387" />
      <stop offset="50%" stop-color="#e94057" />
      <stop offset="100%" stop-color="#f27121" />
    </linearGradient>
    <filter id="dropShadow" x="-20%" y="-20%" width="140%" height="140%">
      <feDropShadow dx="1" dy="2" stdDeviation="1.5" flood-color="#e94057" flood-opacity="0.5" />
    </filter>
  </defs>
  
  <path d="M14.4 7.6C13.5 6.7 12 6.7 11.1 7.6 10.2 8.5 10.2 10 11.1 10.9L3.5 18.5 3 21h2.5L6 20.5V19h1.5l.5-.5V17h1.5l1.6-1.6c.9.9 2.4.9 3.3 0 1.2-1.2 1.2-3.1 0-4.3l-2.6-2.6zM13 10c-.6 0-1-.4-1-1s.4-1 1-1 1 .4 1 1-.4 1-1 1z" fill="url(#keyGradient)" filter="url(#dropShadow)" />
</svg>
